Coordinates
version=1
nRows=14
nColumns=40
inDegrees=yes

Units are S.I. units (second, meters, Newtons, ...)
If the header above contains a line with 'inDegrees', this indicates whether rotational values are in degrees (yes) or radians (no).

endheader
time	pelvis_tilt	pelvis_list	pelvis_rotation	pelvis_tx	pelvis_ty	pelvis_tz	hip_flexion_r	hip_adduction_r	hip_rotation_r	knee_angle_r	knee_angle_r_beta	ankle_angle_r	subtalar_angle_r	mtp_angle_r	hip_flexion_l	hip_adduction_l	hip_rotation_l	knee_angle_l	knee_angle_l_beta	ankle_angle_l	subtalar_angle_l	mtp_angle_l	lumbar_extension	lumbar_bending	lumbar_rotation	arm_flex_r	arm_add_r	arm_rot_r	elbow_flex_r	pro_sup_r	wrist_flex_r	wrist_dev_r	arm_flex_l	arm_add_l	arm_rot_l	elbow_flex_l	pro_sup_l	wrist_flex_l	wrist_dev_l
      3.94500000	    -45.46887563	     -1.54417014	      8.85794462	      0.10570300	      0.62205699	     -1.17321495	    103.20826090	    -47.41323321	     -3.35386016	     77.38515754	      1.35062579	     11.31432135	     -3.23358497	      0.00000000	    104.16799234	    -30.20390241	     -8.63070334	     70.78653074	      1.23545803	      3.51921510	     10.97614940	      0.00000000	      0.00000000	      0.00000000	      0.00000000	     44.71624091	    -15.21173439	     44.71624091	     75.01265854	     44.99999114	      0.00000000	      0.00000000	     44.71624091	    -15.21173439	     44.71624091	     75.01265854	     44.99999114	      0.00000000	      0.00000000
      3.95000000	    -45.16623259	     -1.51617704	      8.73479383	      0.10635257	      0.62117922	     -1.17257529	    103.03961958	    -47.33275578	     -3.30912296	     77.70939179	      1.35628475	     11.52091717	     -3.24812962	      0.00000000	    104.05901434	    -30.51538976	     -8.52286140	     71.10101042	      1.24094673	      3.82664923	     11.36694572	      0.00000000	      0.00000000	      0.00000000	      0.00000000	     44.71958526	    -15.20771160	     44.71958526	     75.01221966	     44.99999190	      0.00000000	      0.00000000	     44.71958526	    -15.20771160	     44.71958526	     75.01221966	     44.99999190	      0.00000000	      0.00000000
      3.95500000	    -45.49439898	     -1.67102538	      8.82167833	      0.10598525	      0.61874586	     -1.17282358	    103.70217294	    -47.48802590	     -3.09451883	     78.06962486	      1.36257200	     11.62402540	     -3.20682357	      0.00000000	    104.80038506	    -30.36373905	     -8.18493567	     71.41681066	      1.24645849	      3.73987785	     10.97413385	      0.00000000	      0.00000000	      0.00000000	      0.00000000	     44.72530085	    -15.20090501	     44.72530085	     75.01149410	     44.99999305	      0.00000000	      0.00000000	     44.72530085	    -15.20090501	     44.72530085	     75.01149410	     44.99999305	      0.00000000	      0.00000000
      3.96000000	    -45.48334433	     -1.59035986	      8.76952810	      0.10615800	      0.61710114	     -1.17240411	    104.08403527	    -47.44580610	     -2.72807521	     78.44070523	      1.36904857	     11.83361423	     -3.12810275	      0.00000000	    104.97435673	    -30.52905036	     -8.13302247	     71.73730871	      1.25205223	      3.89540411	     11.02224726	      0.00000000	      0.00000000	      0.00000000	      0.00000000	     44.73001451	    -15.19534140	     44.73001451	     75.01091275	     44.99999392	      0.00000000	      0.00000000	     44.73001451	    -15.19534140	     44.73001451	     75.01091275	     44.99999392	      0.00000000	      0.00000000
      3.96500000	    -45.59143191	     -1.56813224	      8.74750141	      0.10613762	      0.61521601	     -1.17215629	    104.58684380	    -47.43923903	     -2.40153281	     78.79175954	      1.37517563	     11.87581199	     -3.24260786	      0.00000000	    105.32181593	    -30.60167505	     -7.99365214	     72.04947006	      1.25750048	      4.01431115	     10.94504552	      0.00000000	      0.00000000	      0.00000000	      0.00000000	     44.73672500	    -15.18752037	     44.73672500	     75.01011887	     44.99999501	      0.00000000	      0.00000000	     44.73672500	    -15.18752037	     44.73672500	     75.01011887	     44.99999501	      0.00000000	      0.00000000
      3.97000000	    -45.49707517	     -1.71639609	      8.71840413	      0.10647122	      0.61386981	     -1.17204743	    104.54618544	    -47.49809199	     -2.47928326	     79.09992566	      1.38055414	     12.09803516	     -3.14600878	      0.00000000	    105.59123568	    -30.67561600	     -7.65692158	     72.36239194	      1.26296199	      4.15385439	     10.99526131	      0.00000000	      0.00000000	      0.00000000	      0.00000000	     44.74193708	    -15.18155613	     44.74193708	     75.00953842	     44.99999571	      0.00000000	      0.00000000	     44.74193708	    -15.18155613	     44.74193708	     75.00953842	     44.99999571	      0.00000000	      0.00000000
      3.97500000	    -45.59001549	     -1.70305926	      8.70145304	      0.10645869	      0.61204233	     -1.17184372	    105.01372503	    -47.50352365	     -2.17770322	     79.44400851	      1.38655952	     12.13497438	     -3.24075185	      0.00000000	    105.92617439	    -30.72896668	     -7.49927258	     72.66201982	      1.26819149	      4.25983836	     10.94201779	      0.00000000	      0.00000000	      0.00000000	      0.00000000	     44.74736716	    -15.17541129	     44.74736716	     75.00895518	     44.99999636	      0.00000000	      0.00000000	     44.74736716	    -15.17541129	     44.74736716	     75.00895518	     44.99999636	      0.00000000	      0.00000000
      3.98000000	    -45.52991656	     -1.77812278	      8.65885859	      0.10673144	      0.61057750	     -1.17161340	    105.11793112	    -47.52647747	     -2.12265006	     79.76805127	      1.39221513	     12.34142266	     -3.15964935	      0.00000000	    106.17815120	    -30.82759287	     -7.23711207	     72.97018054	      1.27356991	      4.38476900	     10.95859676	      0.00000000	      0.00000000	      0.00000000	      0.00000000	     44.75255538	    -15.16962476	     44.75255538	     75.00842379	     44.99999689	      0.00000000	      0.00000000	     44.75255538	    -15.16962476	     44.75255538	     75.00842379	     44.99999689	      0.00000000	      0.00000000
      3.98500000	    -45.61976604	     -1.71372414	      8.62698121	      0.10674611	      0.60872726	     -1.17134880	    105.63253772	    -47.49921012	     -1.73587046	     80.11694085	      1.39830440	     12.42046571	     -3.21354778	      0.00000000	    106.47153817	    -30.91687148	     -7.14331525	     73.28139983	      1.27900171	      4.51547403	     10.88967523	      0.00000000	      0.00000000	      0.00000000	      0.00000000	     44.75557003	    -15.16628587	     44.75557003	     75.00812170	     44.99999719	      0.00000000	      0.00000000	     44.75557003	    -15.16628587	     44.75557003	     75.00812170	     44.99999719	      0.00000000	      0.00000000
      3.99000000	    -45.58534558	     -1.79599358	      8.57603891	      0.10699172	      0.60716617	     -1.17116371	    105.76505410	    -47.51705350	     -1.67611594	     80.44416372	      1.40401552	     12.64988034	     -3.09253091	      0.00000000	    106.76784209	    -31.01248342	     -6.86306115	     73.61259284	      1.28478212	      4.66468105	     10.87709423	      0.00000000	      0.00000000	      0.00000000	      0.00000000	     44.76018307	    -15.16124366	     44.76018307	     75.00767935	     44.99999758	      0.00000000	      0.00000000	     44.76018307	    -15.16124366	     44.76018307	     75.00767935	     44.99999758	      0.00000000	      0.00000000
      3.99500000	    -45.64611661	     -1.81898187	      8.58528919	      0.10704794	      0.60545273	     -1.17107227	    106.12899998	    -47.57267627	     -1.45789048	     80.75559956	      1.40945110	     12.75187038	     -3.13737960	      0.00000000	    107.08647554	    -31.01983056	     -6.66775944	     73.89565472	      1.28972248	      4.73923117	     10.79961423	      0.00000000	      0.00000000	      0.00000000	      0.00000000	     44.76494291	    -15.15610130	     44.76494291	     75.00723992	     44.99999794	      0.00000000	      0.00000000	     44.76494291	    -15.15610130	     44.76494291	     75.00723992	     44.99999794	      0.00000000	      0.00000000
      4.00000000	    -45.67075893	     -1.76822876	      8.51617154	      0.10717137	      0.60372482	     -1.17071445	    106.52550738	    -47.52340015	     -1.15137542	     81.11760862	      1.41576935	     12.84964312	     -3.13650871	      0.00000000	    107.33415996	    -31.15757050	     -6.53389893	     74.21164341	      1.29523752	      4.92080616	     10.79073273	      0.00000000	      0.00000000	      0.00000000	      0.00000000	     44.76882781	    -15.15193265	     44.76882781	     75.00688901	     44.99999821	      0.00000000	      0.00000000	     44.76882781	    -15.15193265	     44.76882781	     75.00688901	     44.99999821	      0.00000000	      0.00000000
      4.00500000	    -45.51911101	     -1.75978565	      8.40123115	      0.10759809	      0.60240337	     -1.17026586	    106.57238183	    -47.46023835	     -1.03701678	     81.45032716	      1.42157639	     13.06145032	     -2.98859684	      0.00000000	    107.43687752	    -31.38320732	     -6.33672349	     74.54899043	      1.30112534	      5.20259269	     10.98009760	      0.00000000	      0.00000000	      0.00000000	      0.00000000	     44.77207578	    -15.14849274	     44.77207578	     75.00660798	     44.99999841	      0.00000000	      0.00000000	     44.77207578	    -15.14849274	     44.77207578	     75.00660798	     44.99999841	      0.00000000	      0.00000000
      4.01000000	    -45.66263143	     -1.80999288	      8.43256019	      0.10751413	      0.60045542	     -1.17028285	    107.04882767	    -47.55099850	     -0.80748788	     81.78089953	      1.42734596	     13.17909839	     -2.99627559	      0.00000000	    107.87514015	    -31.33093810	     -6.11394506	     74.83045155	      1.30603776	      5.16905249	     10.73630554	      0.00000000	      0.00000000	      0.00000000	      0.00000000	     44.77536300	    -15.14503258	     44.77536300	     75.00632919	     44.99999860	      0.00000000	      0.00000000	     44.77536300	    -15.14503258	     44.77536300	     75.00632919	     44.99999860	      0.00000000	      0.00000000
